<svg xmlns="http://www.w3.org/2000/svg" width="301.216" height="48.05" viewBox="0 0 301.216 48.05"><defs><style>.a{fill:#212738;}</style></defs><path class="a" d="M22.05,30.55a54.544,54.544,0,0,1,.7-6.9H11.45a36.4,36.4,0,0,0-.65,5.15q0,4.85,1.5,7.25A10.281,10.281,0,0,1,6.05,38.3q-3.25,0-4.65-1.85A9.376,9.376,0,0,1,0,30.85Q0,27.1,3.15,9.7L.5,4.35Q6.15.7,10.8.7q3.85,0,3.85,4.7,0,1.4-2.1,12.3h11.2q.2-1.25,1.45-8L22.55,4.35Q28.2.7,32.85.7,36.7.7,36.7,5.4a114.868,114.868,0,0,1-1.95,11.55,105.653,105.653,0,0,0-1.9,11.85q0,4.85,1.5,7.25A10.281,10.281,0,0,1,28.1,38.3q-3.25,0-4.65-1.85Q22.05,34.55,22.05,30.55ZM65.111,10.8a6.206,6.206,0,0,1,4.8,2.25q2.05,2.25,2.05,6.55a20.581,20.581,0,0,1-1.5,7.9,16.827,16.827,0,0,1-3.95,5.9,18.5,18.5,0,0,1-5.55,3.6,16.838,16.838,0,0,1-6.35,1.25q-6.55,0-10.35-3.6a12.54,12.54,0,0,1-3.8-9.55q0-8.05,5.15-13.05A18.17,18.17,0,0,1,58.811,7a16.55,16.55,0,0,1,3.6.4,12.807,12.807,0,0,1,.6,3.75A6.607,6.607,0,0,1,65.111,10.8Zm-6.15,6.95a9.164,9.164,0,0,1,.65-3.15,6.1,6.1,0,0,1,2.2-2.8q-6.6,1.4-9.1,5.35a12.937,12.937,0,0,0-2.15,7,10.383,10.383,0,0,0,1.45,5.8,4.485,4.485,0,0,0,3.8,2.15q5.1,0,7.2-6.65A8.417,8.417,0,0,1,58.961,17.75ZM77.3,18.95a10.766,10.766,0,0,1-.35-2.6,4.618,4.618,0,0,1,1.45-3.7,5.539,5.539,0,0,1,3.75-1.25A14.056,14.056,0,0,0,80.8,5.75a25.174,25.174,0,0,1,4.45-2.7,10.11,10.11,0,0,1,4.3-.95,4.366,4.366,0,0,1,3.1.85,3.18,3.18,0,0,1,.9,2.5,31.059,31.059,0,0,1-.7,5.3A36.539,36.539,0,0,0,96.9,9.9a8.7,8.7,0,0,1,.35,2.7,4.577,4.577,0,0,1-1.3,3.1,4.7,4.7,0,0,1-3.7,1.4H91.5a62.919,62.919,0,0,0-1.8,12.55q0,4.4,1.55,6.15a8.912,8.912,0,0,1-5.95,2.45,5.34,5.34,0,0,1-4.55-1.85q-1.35-1.9-1.35-5.85a110.636,110.636,0,0,1,1.75-12.6A24.156,24.156,0,0,0,77.3,18.95Zm38.42,9.9a64.532,64.532,0,0,1,1.35-10.05q1.35-7.2,1.65-9.1l-2.65-5.35q6.35-3.6,10.8-3.6a3.829,3.829,0,0,1,3.3,1.5A23.332,23.332,0,0,1,137.823.8q6.5,0,10.1,4.25a15.567,15.567,0,0,1,3.6,10.5,22.634,22.634,0,0,1-6.1,15.25,21.164,21.164,0,0,1-7.8,5.4,25.948,25.948,0,0,1-10.3,2.05q-5.5,0-8.55-2.4A8.457,8.457,0,0,1,115.723,28.85Zm10.6,1.9a12.612,12.612,0,0,0,2.35.2,10.182,10.182,0,0,0,8.5-3.9,15.4,15.4,0,0,0,3.05-9.7,11.9,11.9,0,0,0-2.1-7.4,7.154,7.154,0,0,0-6.05-2.75,16.231,16.231,0,0,0-2,.2q-.351,2.55-1.85,11.4Q126.772,27.6,126.323,30.75ZM178.441,10.8a6.205,6.205,0,0,1,4.8,2.25q2.051,2.25,2.05,6.55a20.581,20.581,0,0,1-1.5,7.9,16.833,16.833,0,0,1-3.95,5.9,18.488,18.488,0,0,1-5.55,3.6,16.838,16.838,0,0,1-6.35,1.25q-6.55,0-10.35-3.6a12.541,12.541,0,0,1-3.8-9.55q0-8.05,5.15-13.05A18.171,18.171,0,0,1,172.141,7a16.55,16.55,0,0,1,3.6.4,12.787,12.787,0,0,1,.6,3.75A6.607,6.607,0,0,1,178.441,10.8Zm-6.15,6.95a9.171,9.171,0,0,1,.65-3.15,6.107,6.107,0,0,1,2.2-2.8q-6.6,1.4-9.1,5.35a12.939,12.939,0,0,0-2.15,7,10.38,10.38,0,0,0,1.45,5.8,4.485,4.485,0,0,0,3.8,2.15q5.1,0,7.2-6.65A8.417,8.417,0,0,1,172.291,17.75ZM199.233,23a6.074,6.074,0,0,0,1.4,4.15,4.675,4.675,0,0,0,3.55,1.55,6.554,6.554,0,0,0,5.1-2.7q.851-4.45,2.2-14.05a12.307,12.307,0,0,0-8.95,3.25A10.558,10.558,0,0,0,199.233,23Zm13.25,18.95a16.642,16.642,0,0,1-5.9,4.95,16,16,0,0,1-7.5,1.85,11.751,11.751,0,0,1-6.3-1.5,4.449,4.449,0,0,1-2.35-3.95,8.9,8.9,0,0,1,2.05-5.25,7.777,7.777,0,0,0,6.9,3.4,7.675,7.675,0,0,0,5.55-2.6,13.361,13.361,0,0,0,3.45-7.5l-.5-.25q-3.549,5.2-9.1,5.2a7.755,7.755,0,0,1-6.6-3.25,14.231,14.231,0,0,1-2.4-8.65,16.832,16.832,0,0,1,2.85-9.5,16.72,16.72,0,0,1,9.05-6.85,19.57,19.57,0,0,1,6.1-1.05,25.464,25.464,0,0,1,4.9.4,14.384,14.384,0,0,1,.35,2.45,8.373,8.373,0,0,1,4.75-1.6q3.45,0,3.45,3.55a61.268,61.268,0,0,1-.45,7.3q-.45,3.7-1.4,7.95a38.19,38.19,0,0,1-2.75,8.05A36,36,0,0,1,212.483,41.95ZM247.7,29.75q0-3.1,2.1-13.6a9.265,9.265,0,0,1-5.85-1.9,8.5,8.5,0,0,1-2.9-5.9,35.9,35.9,0,0,0,7.65-2.4q3.651-1.65,6.1-2.8A10.538,10.538,0,0,1,259.2,2q3.551,0,3.55,4,0,2.45-1.95,11.4-1.95,8.9-1.95,12.75a12.136,12.136,0,0,0,1.45,6.25,13.264,13.264,0,0,1-6.4,1.85Q247.7,38.25,247.7,29.75Zm33.967-1.3q-5.65,0-8.55-3.05a10.573,10.573,0,0,1-2.85-7.5,14.052,14.052,0,0,1,2.55-8.15A17.107,17.107,0,0,1,279.566,4a21.709,21.709,0,0,1,9.45-2,12.478,12.478,0,0,1,8.75,3.15q3.45,3.15,3.45,8.85a31.188,31.188,0,0,1-2.15,11.25,35.02,35.02,0,0,1-5.4,9.65,29.144,29.144,0,0,1-7.3,6.65,14.421,14.421,0,0,1-7.75,2.6q-6,0-7.4-5a25.738,25.738,0,0,0,15.25-11.25A21.425,21.425,0,0,1,281.666,28.45Zm9.05-14.2a8.918,8.918,0,0,0-.95-4.3,3.138,3.138,0,0,0-2.95-1.75q-2,0-3.7,2.35a10.49,10.49,0,0,0-1.7,6.35,8.477,8.477,0,0,0,.9,4.1,3.169,3.169,0,0,0,2.95,1.65,4.727,4.727,0,0,0,3.7-2.25A9.9,9.9,0,0,0,290.716,14.25Z" transform="translate(0 -0.7)"/></svg>